<svg xmlns="http://www.w3.org/2000/svg" width="179" height="77" viewBox="0 0 179 77">
  <g fill="none" fill-rule="evenodd">
    <path fill="#FFF" d="M59.2724613 51.7279198C60.0903004 52.9082514 66.3633468 55.7264587 71.3632167 55.7264587 79.6366532 55.7264587 86.6358081 48.8179826 86.6358081 40.3633605 86.6358081 31.9993631 79.6366532 25.0002622 71.3632167 25.0002622 66.5457028 25.0002622 62.1813158 27.3631357 59.2724613 30.9991758L59.2724613 51.7279198zM59.2724613 26.181699C62.5449226 23.4552215 66.817579 21.726721 71.3632167 21.726721 81.6348329 21.726721 90 30.0907184 90 40.3633605 90 50.6360026 81.6348329 59 71.3632167 59 62.1813158 59 56 54.545022 56 54.545022L56 0 59.2724613 0 59.2724613 26.181699zM111.455675 25.2495404C103.263732 25.2495404 96.3314994 32.2883829 96.3314994 40.4989029 96.3314994 48.7116171 103.263732 55.7504596 111.455675 55.7504596 119.737362 55.7504596 126.669595 48.8026745 126.669595 40.4989029 126.669595 32.1973255 119.737362 25.2495404 111.455675 25.2495404M111.455675 59C101.282782 59 93 50.6962284 93 40.4989029 93 30.3015774 101.282782 22 111.455675 22 121.628568 22 130 30.3015774 130 40.4989029 130 50.6962284 121.628568 59 111.455675 59M151.455126 25.2495404C143.262941 25.2495404 136.330503 32.2883829 136.330503 40.4989029 136.330503 48.7116171 143.262941 55.7504596 151.455126 55.7504596 159.737059 55.7504596 166.668402 48.8026745 166.668402 40.4989029 166.668402 32.1973255 159.737059 25.2495404 151.455126 25.2495404M151.455126 59C141.281932 59 133 50.6962284 133 40.4989029 133 30.3015774 141.281932 22 151.455126 22 161.627226 22 170 30.3015774 170 40.4989029 170 50.6962284 161.627226 59 151.455126 59M179 12.4745012L175.488047 15.9467802 171.974969 12.4745012 175.488047 9 179 12.4745012zM168 73.8921714C171.513077 71.0599029 173.823662 66.7631661 173.823662 62.1019788L173.823662 22.2535499 177.151308 22.2535499 177.151308 62.1019788C177.151308 68.1354107 174.1934 73.5266099 169.755415 77L168 73.8921714z"/>
    <path fill="#EB2227" d="M41.9366432,23.9887795 C39.5570193,18.4372642 36.4281519,13.2128937 33.2693591,8.0758356 C31.636762,5.42220466 30.0562573,2.87467475 28.8625661,0 C27.2465942,3.57206797 25.1362989,6.90319819 23.0636875,10.2442754 C21.0387351,6.90098775 18.839772,3.61959239 17.3357433,0 C15.4360342,4.19983239 12.8524742,8.06478341 10.4517917,12.0059945 C6.67121551,18.2162204 2.77869613,24.586703 0.939946221,31.6877354 C-0.781318759,38.3411541 -0.288103745,45.5383405 3.67091654,51.323057 C7.17329731,56.4402212 13.1173695,59.7945611 19.4227632,58.8352309 C19.4150048,58.8352309 19.4083547,58.8352309 19.4005963,58.8330205 C19.3762126,58.8297048 19.3496122,58.8285996 19.3252286,58.825284 C14.4917214,58.0560515 10.0926869,54.8940198 7.25864014,50.0365821 C3.81278513,44.2330768 3.44148844,36.6965881 6.21900939,28.8252181 C7.60776987,24.7900633 9.60058019,20.9350593 11.5978239,17.4591453 C12.0201046,16.7252799 15.788489,10.0055481 17.2736758,7.356338 C18.4585002,9.46509595 19.6943086,11.6036948 20.90795,13.7699241 C17.4820453,19.42533 14.1326166,25.2553605 12.4678774,31.6877354 C10.745504,38.3411541 11.238719,45.5383405 15.1977393,51.323057 C18.7034452,56.4457473 24.6586008,59.8034028 30.9706446,58.8330205 C25.7658408,58.0262106 21.4344155,54.5005618 18.8297969,50.0365821 C14.878535,43.3842686 15.4582012,35.3150643 17.9830187,28.2759242 C19.3352037,24.506022 21.1761703,20.9273227 23.1689806,17.4591453 C23.5790695,16.7462791 27.5890738,9.51704124 28.7993902,7.356338 C32.9479381,14.738096 37.7692534,22.4215789 39.7942058,30.7096165 C41.630739,38.2262113 39.9150158,49.138039 31.0659626,51.388265 C36.9147168,52.8990994 42.0242027,48.2196019 43.9194784,43.0714916 C46.2359264,36.7827952 44.4780859,29.914964 41.9366432,23.9887795 M25.2881427,22.2856369 C25.9864021,20.7858547 26.7201287,19.3435438 27.4460969,17.9797035 C29.2770884,21.4246713 31.1779058,25.3581459 32.3538634,29.5237165 C34.07402,35.4808472 33.7104817,41.0765712 31.3253161,45.2863506 C30.3566197,46.9950192 29.031035,48.5854295 27.427255,49.7414886 C26.6735781,49.1966156 25.9631268,48.5434311 25.3125263,47.7918822 C29.0620688,43.3665851 29.5962927,36.1506099 28.2662747,30.7096165 C27.5635818,27.8338366 26.5195177,25.0287906 25.2881427,22.2856369"/>
  </g>
</svg>
